<svg width="41" height="41" viewBox="0 0 41 41" fill="none" xmlns="http://www.w3.org/2000/svg">
<path d="M11.0915 28.4998L10.4697 29.1217C10.0791 29.5123 10.0791 30.1451 10.4697 30.5357C10.665 30.731 10.9208 30.8287 11.1767 30.8287C11.4326 30.8287 11.6884 30.731 11.8837 30.5357L12.5056 29.9139C13.9784 31.1051 15.7655 31.8275 17.6367 31.9625C17.9833 31.9874 18.3442 32.0054 18.7031 32.0054C19.978 32.0054 21.2231 31.7774 21.6689 30.8175C22.2128 29.6461 21.1025 28.5079 20.7377 28.1339C19.2981 26.6577 17.8787 25.992 16.6405 25.7789L18.0999 24.3196C19.5734 25.5112 21.3609 26.2336 23.2314 26.3678C23.5786 26.3927 23.9404 26.4107 24.2998 26.4107C25.5742 26.4107 26.8178 26.1827 27.2636 25.2227C27.8076 24.0518 26.6972 22.9136 26.3325 22.5396C24.8926 21.063 23.4731 20.3974 22.2351 20.1844L23.6945 18.7249C25.1674 19.9161 26.9545 20.6385 28.8256 20.7735C29.1723 20.7984 29.5332 20.8165 29.892 20.8165C31.1669 20.8165 32.4121 20.5885 32.8579 19.6285C33.4018 18.4571 32.2915 17.3189 31.9267 16.9449C30.4867 15.4686 29.0675 14.8029 27.8297 14.5898L28.5839 13.8355C28.9746 13.4449 28.9746 12.8121 28.5839 12.4215C28.1933 12.0308 27.5605 12.0308 27.1699 12.4215L26.4157 13.1757C26.2025 11.9378 25.5368 10.5185 24.0605 9.07869C23.6865 8.71394 22.5493 7.6031 21.3769 8.14753C20.1469 8.71882 20.1186 10.6026 20.2319 12.1798C20.3669 14.0509 21.0893 15.838 22.2805 17.3109L20.8209 18.7704C20.6079 17.5324 19.9421 16.113 18.4658 14.6729C18.0922 14.3082 16.9541 13.1959 15.7827 13.7418C14.5517 14.3136 14.5244 16.1969 14.6376 17.7735C14.7718 19.6444 15.4942 21.432 16.6858 22.9055L15.2265 24.3649C15.0134 23.1269 14.3478 21.7075 12.8715 20.2677C12.4975 19.9024 11.3613 18.7911 10.1879 19.3365C8.95796 19.9078 8.92964 21.7916 9.04292 23.3687C9.17793 25.2399 9.90034 27.027 11.0915 28.4998ZM19.3061 29.5303C19.4672 29.6954 19.5786 29.8282 19.6547 29.9312C19.3544 29.9888 18.7905 30.0401 17.7802 29.9674C16.3893 29.8673 15.0642 29.3333 13.9417 28.4777L14.4011 28.0184C14.7608 27.8139 16.7315 26.8913 19.3061 29.5303ZM24.9008 23.9361C25.062 24.1011 25.1728 24.234 25.2495 24.3365C24.9497 24.3956 24.3876 24.4469 23.3745 24.3726C21.984 24.2731 20.6587 23.7395 19.5357 22.8838L19.9996 22.4198C20.3247 22.2299 22.2944 21.2643 24.9008 23.9361ZM30.4951 18.3414C30.6562 18.5064 30.7675 18.6392 30.8437 18.7423C30.5439 18.8004 29.979 18.8507 28.9692 18.7784C27.5781 18.6784 26.2533 18.1443 25.1306 17.2889L25.591 16.8284C25.9516 16.6231 27.9238 15.7044 30.4951 18.3414ZM22.2631 10.1617C22.3662 10.2384 22.499 10.3492 22.664 10.5103C25.3005 13.082 24.3814 15.0538 24.1762 15.4152L23.7163 15.8751C22.8606 14.7525 22.327 13.4276 22.227 12.0362C22.1542 11.0245 22.205 10.461 22.2631 10.1617ZM16.6689 15.7559C16.7714 15.8326 16.9042 15.9434 17.0693 16.1046C19.7058 18.6763 18.7866 20.6485 18.5814 21.0099L18.1216 21.4697C17.2659 20.3467 16.7323 19.0214 16.6328 17.6304C16.56 16.6187 16.6103 16.0557 16.6689 15.7559ZM11.0742 21.3507C11.1772 21.4273 11.31 21.5382 11.475 21.6993C14.1113 24.2704 13.1924 26.2424 12.9872 26.6041L12.527 27.0643C11.6717 25.9416 11.138 24.6163 11.038 23.2252C10.9653 22.2135 11.0161 21.65 11.0742 21.3507Z" fill="white"/>
<circle cx="20.5" cy="20.5" r="19.5" stroke="white" stroke-width="2"/>
</svg>
