<svg width="18" height="14" viewBox="0 0 18 14" fill="none" xmlns="http://www.w3.org/2000/svg">
<path fill-rule="evenodd" clip-rule="evenodd" d="M18 3.91147C18 4.64253 13.7368 4.64253 13.7368 3.91147C13.7368 3.66779 13.7368 3.32663 13.7368 3.03421C13.7368 2.05947 4.26316 2.05947 4.26316 3.03421C4.26316 3.32663 4.26316 3.66779 4.26316 3.91147C4.26316 4.64253 0 4.64253 0 3.91147C0 -1.40084 18 -1.2059 18 3.91147ZM5.21053 4.20389H6.27632V3.08295H7.57895V4.20389H10.4803V3.08295H11.7237V4.20389H12.7895C13.4408 4.20389 13.9145 4.64253 14.0921 5.12989L16.6382 12.6354C16.8158 13.1227 16.2829 14 15.6316 14C11.1908 14 6.80921 14 2.36842 14C1.77632 14 1.24342 13.1227 1.36184 12.6354L3.96711 5.12989C4.08553 4.64253 4.61842 4.20389 5.21053 4.20389ZM9 6.592C10.6579 6.592 12.0197 7.71295 12.0197 9.07758C12.0197 10.4422 10.6579 11.5632 9 11.5632C7.34211 11.5632 5.98026 10.4422 5.98026 9.07758C5.98026 7.71295 7.34211 6.592 9 6.592Z" fill="#96866E"/>
</svg>
